<svg width="42" height="40" viewBox="0 0 42 40" fill="none" xmlns="http://www.w3.org/2000/svg">
<path d="M1.00088 0.2499C0.586663 0.2499 0.250877 0.585687 0.250877 0.9999L0.250876 7.7499C0.250876 8.16411 0.586663 8.4999 1.00088 8.4999C1.41509 8.4999 1.75088 8.16411 1.75088 7.7499V1.7499H7.75088C8.16509 1.7499 8.50088 1.41411 8.50088 0.9999C8.50088 0.585686 8.16509 0.2499 7.75088 0.2499L1.00088 0.2499ZM8.5108 7.44916L1.53121 0.46957L0.470547 1.53023L7.45014 8.50982L8.5108 7.44916Z" fill="#E4002B"/>
<path d="M1.00088 39.7501C0.586663 39.7501 0.250877 39.4143 0.250877 39.0001L0.250876 32.2501C0.250876 31.8359 0.586663 31.5001 1.00088 31.5001C1.41509 31.5001 1.75088 31.8359 1.75088 32.2501V38.2501H7.75088C8.16509 38.2501 8.50088 38.5859 8.50088 39.0001C8.50088 39.4143 8.16509 39.7501 7.75088 39.7501L1.00088 39.7501ZM8.5108 32.5508L1.53121 39.5304L0.470547 38.4698L7.45014 31.4902L8.5108 32.5508Z" fill="#E4002B"/>
<path d="M40.5499 0.2499C40.9641 0.2499 41.2999 0.585687 41.2999 0.9999L41.2999 7.7499C41.2999 8.16411 40.9641 8.4999 40.5499 8.4999C40.1357 8.4999 39.7999 8.16411 39.7999 7.7499V1.7499H33.7999C33.3857 1.7499 33.0499 1.41411 33.0499 0.9999C33.0499 0.585686 33.3857 0.2499 33.7999 0.2499L40.5499 0.2499ZM33.04 7.44916L40.0196 0.46957L41.0802 1.53023L34.1006 8.50982L33.04 7.44916Z" fill="#E4002B"/>
<path d="M40.5499 39.7501C40.9641 39.7501 41.2999 39.4143 41.2999 39.0001L41.2999 32.2501C41.2999 31.8359 40.9641 31.5001 40.5499 31.5001C40.1357 31.5001 39.7999 31.8359 39.7999 32.2501V38.2501H33.7999C33.3857 38.2501 33.0499 38.5859 33.0499 39.0001C33.0499 39.4143 33.3857 39.7501 33.7999 39.7501L40.5499 39.7501ZM33.04 32.5508L40.0196 39.5304L41.0802 38.4698L34.1006 31.4902L33.04 32.5508Z" fill="#E4002B"/>
<rect x="11.0547" y="10.2803" width="19.4388" height="19.4388" rx="3.25" stroke="#E4002B" stroke-width="1.5"/>
<path d="M21.1091 25.232C20.2891 25.232 19.5041 25.117 18.7541 24.887C18.0041 24.647 17.4091 24.342 16.9691 23.972L17.6441 22.457C18.0641 22.787 18.5841 23.062 19.2041 23.282C19.8241 23.502 20.4591 23.612 21.1091 23.612C21.6591 23.612 22.1041 23.552 22.4441 23.432C22.7841 23.312 23.0341 23.152 23.1941 22.952C23.3541 22.742 23.4341 22.507 23.4341 22.247C23.4341 21.927 23.3191 21.672 23.0891 21.482C22.8591 21.282 22.5591 21.127 22.1891 21.017C21.8291 20.897 21.4241 20.787 20.9741 20.687C20.5341 20.587 20.0891 20.472 19.6391 20.342C19.1991 20.202 18.7941 20.027 18.4241 19.817C18.0641 19.597 17.7691 19.307 17.5391 18.947C17.3091 18.587 17.1941 18.127 17.1941 17.567C17.1941 16.997 17.3441 16.477 17.6441 16.007C17.9541 15.527 18.4191 15.147 19.0391 14.867C19.6691 14.577 20.4641 14.432 21.4241 14.432C22.0541 14.432 22.6791 14.512 23.2991 14.672C23.9191 14.832 24.4591 15.062 24.9191 15.362L24.3041 16.877C23.8341 16.597 23.3491 16.392 22.8491 16.262C22.3491 16.122 21.8691 16.052 21.4091 16.052C20.8691 16.052 20.4291 16.117 20.0891 16.247C19.7591 16.377 19.5141 16.547 19.3541 16.757C19.2041 16.967 19.1291 17.207 19.1291 17.477C19.1291 17.797 19.2391 18.057 19.4591 18.257C19.6891 18.447 19.9841 18.597 20.3441 18.707C20.7141 18.817 21.1241 18.927 21.5741 19.037C22.0241 19.137 22.4691 19.252 22.9091 19.382C23.3591 19.512 23.7641 19.682 24.1241 19.892C24.4941 20.102 24.7891 20.387 25.0091 20.747C25.2391 21.107 25.3541 21.562 25.3541 22.112C25.3541 22.672 25.1991 23.192 24.8891 23.672C24.5891 24.142 24.1241 24.522 23.4941 24.812C22.8641 25.092 22.0691 25.232 21.1091 25.232Z" fill="#E4002B"/>
</svg>
