<svg width="50" height="50" viewBox="0 0 50 50" fill="none" xmlns="http://www.w3.org/2000/svg">
<g clip-path="url(#clip0_314_8227)">
<path fill-rule="evenodd" clip-rule="evenodd" d="M19.5849 4.89913C19.5012 4.92438 19.3456 5.03419 19.2391 5.14319L19.0456 5.34134L19.018 7.17783C18.9859 9.31082 19.0138 9.82143 19.1754 10.0616C19.3616 10.3382 19.4571 10.3585 20.7261 10.3901L21.8859 10.4189L21.9191 10.55C21.9374 10.6222 21.954 11.6403 21.956 12.8127C21.9587 14.3914 21.9442 14.9597 21.8999 15.004C21.8622 15.0417 21.5768 15.0733 21.1274 15.0894L20.4148 15.1151L20.2152 15.3478L20.0157 15.5806L20.0154 18.4196L20.0151 21.2586L21.0071 23.0918C22.7117 26.2415 22.9186 26.6215 24.5217 29.5466L24.9508 30.3296L24.9817 34.8145L25.0125 39.2994L24.8539 39.602C24.7527 39.7951 24.687 40.0043 24.6724 40.1802C24.612 40.9084 25.317 41.5064 26.0146 41.3185C26.2948 41.243 26.6248 40.9821 26.7528 40.7346C26.889 40.4712 26.8921 40.0432 26.7594 39.8002C26.6689 39.6344 26.6606 39.4433 26.626 36.7191C26.5875 33.6935 26.6141 30.7187 26.6825 30.3923C26.7045 30.2879 27.1415 29.481 27.6538 28.5992C28.1662 27.7174 28.9004 26.4504 29.2856 25.7837C29.6707 25.1169 30.3765 23.899 30.8539 23.0773C31.3313 22.2555 31.7627 21.5054 31.8124 21.4104C31.8961 21.2508 31.9032 21.0264 31.9065 18.4344C31.9099 15.8456 31.9034 15.6187 31.8209 15.4678C31.6798 15.2096 31.4839 15.14 30.7799 15.0979C30.3431 15.0718 30.1416 15.0399 30.1114 14.9922C30.0475 14.8914 30.0545 10.6212 30.1188 10.501C30.1682 10.4089 30.2359 10.4034 31.3204 10.4034H32.4696L32.7076 10.1617L32.9456 9.92002V7.64692V5.37382L32.704 5.13577C32.4659 4.90125 32.4575 4.89776 32.1338 4.89776C31.8085 4.89776 31.8031 4.90004 31.5673 5.1394L31.3293 5.38109V7.05878V8.73652H25.9789H20.6285L20.6122 7.08232C20.5969 5.52575 20.5899 5.41781 20.4931 5.2531C20.3188 4.9564 19.916 4.79937 19.5849 4.89913ZM28.3997 11.8095C28.3997 12.4718 28.4147 13.4605 28.433 14.0067L28.4663 14.9998H26.059H23.6518V12.8026V10.6054H26.0258H28.3997V11.8095ZM30.2686 18.7602V20.8034L29.1906 22.6621C28.5976 23.6845 27.8227 25.021 27.4685 25.6321C26.2884 27.6683 25.8509 28.3856 25.7992 28.3692C25.7352 28.349 25.5085 27.9395 23.3608 23.9653C22.7903 22.9096 22.1678 21.764 21.9775 21.4194L21.6314 20.793V18.755V16.7171H25.95H30.2686V18.7602ZM20.2424 30.5837C19.8715 30.7803 19.6125 31.1751 19.6888 31.4273C19.8245 31.8758 22.2628 36.1418 22.6214 36.5583C22.769 36.7298 22.7983 36.7413 23.1344 36.7603L23.4907 36.7804L23.7175 36.5715C24.1147 36.2053 24.0786 35.9201 23.5093 34.926C21.119 30.7516 21.1601 30.8189 20.9016 30.66C20.6709 30.5183 20.4205 30.4893 20.2424 30.5837ZM30.3949 30.6001C30.2838 30.6527 30.1332 30.761 30.0602 30.8409C29.8899 31.0276 27.7126 34.7639 27.3202 35.543C26.9979 36.1829 27.2894 36.7689 27.9301 36.7694C28.4844 36.7698 28.3863 36.9 30.346 33.5622C31.2826 31.9671 31.4416 31.6505 31.4449 31.3751C31.4486 31.0753 31.3287 30.8438 31.0872 30.684C30.8223 30.5088 30.6358 30.4861 30.3949 30.6001ZM11.7737 30.8103C11.5116 30.8561 11.3452 30.9804 11.2214 31.2231C11.0936 31.4737 11.1109 31.8095 11.2619 32.0118C11.4286 32.2351 11.6569 32.3884 13.4235 33.4634C14.368 34.0381 15.4477 34.6967 15.8227 34.9268C16.1978 35.1569 17.3342 35.8545 18.3482 36.4769C20.4407 37.7612 21.0413 38.1109 21.2403 38.1603C21.6093 38.2521 22.0659 37.9537 22.1893 37.5403C22.2449 37.3539 22.2416 37.3003 22.1639 37.128C22.1148 37.019 22.0033 36.8618 21.9161 36.7785C21.829 36.6952 20.8371 36.0642 19.712 35.3764C18.5869 34.6885 17.314 33.91 16.8834 33.6462C11.9135 30.6027 12.1644 30.742 11.7737 30.8103ZM38.9537 30.8468C38.8352 30.8868 38.4976 31.0688 38.2033 31.2511C37.909 31.4333 37.0433 31.9622 36.2793 32.4264C31.5126 35.3223 30.3413 36.0445 29.5556 36.5719C29.2021 36.8092 29.1049 36.9028 29.0379 37.0704C28.9344 37.329 28.9345 37.4226 29.0386 37.6829C29.1462 37.9516 29.4571 38.1839 29.7094 38.1839C29.923 38.1839 30.4122 37.9586 31.0263 37.5774C31.2624 37.4309 31.9784 36.993 32.6173 36.6044C33.2563 36.2157 33.8963 35.8228 34.0397 35.7311C34.1831 35.6394 34.9786 35.1507 35.8076 34.6451C40.2203 31.9535 40.017 32.1002 40.017 31.6076C40.017 31.0157 39.5156 30.6569 38.9537 30.8468ZM15.7542 38.5894C15.4518 38.68 15.2671 38.9572 15.2671 39.3203C15.2671 39.7255 15.4907 40.0121 15.8732 40.0973C16.0998 40.1477 16.689 40.1842 19.611 40.3285C20.4583 40.3704 21.2766 40.4152 21.4293 40.4281L21.7072 40.4517L21.9461 40.1694C22.0775 40.0141 22.1991 39.8125 22.2161 39.7213C22.2806 39.378 22.1096 39.0389 21.8087 38.9132C21.5381 38.8002 20.4058 38.7126 17.5906 38.5868C16.3483 38.5314 15.9459 38.5319 15.7542 38.5894ZM33.9811 38.5679C33.8422 38.5781 33.0467 38.6226 32.2132 38.6666C31.3798 38.7107 30.3935 38.778 30.0215 38.8163C29.399 38.8803 29.3334 38.897 29.1999 39.025C28.9482 39.2661 28.8997 39.7009 29.0845 40.0584C29.1231 40.1329 29.2533 40.2417 29.374 40.3001C29.6468 40.4322 30.171 40.4392 31.8274 40.333C32.4563 40.2927 33.4027 40.2345 33.9306 40.2037C35.0879 40.1363 35.4784 40.0761 35.6538 39.9381C35.9287 39.7218 36.0041 39.2714 35.82 38.9438C35.6459 38.6343 35.4898 38.5746 34.8192 38.561C34.4971 38.5546 34.12 38.5576 33.9811 38.5679ZM2.78906 41.3625C1.50672 41.3949 1.46919 41.4057 1.27452 41.7987C1.1433 42.0634 1.14683 42.1922 1.29402 42.5082C1.38716 42.7082 1.45257 42.7801 1.58395 42.8264C1.93726 42.951 4.50676 42.9792 15.6542 42.9807L23.9503 42.9823L24.3147 43.5C25.2436 44.8199 25.6022 45.188 25.8969 45.1247C26.2028 45.0591 26.5351 44.7473 26.8076 44.2703C26.887 44.1314 27.1077 43.7848 27.2981 43.5L27.6444 42.9823L36.419 42.981C42.676 42.9804 48.1843 42.9592 48.6598 42.9341C49.7231 42.8778 49.8455 42.8368 49.9607 42.4988C50.0652 42.1921 50.0651 41.9581 49.9604 41.7376C49.8353 41.4739 49.6636 41.4134 48.8876 41.3598C48.4777 41.3314 43.378 41.318 36.279 41.3265C24.3666 41.3407 26.9601 41.3408 26.7834 41.4443C26.6732 41.5088 26.4694 41.7466 26.2424 42.0757C26.042 42.3659 25.8502 42.6035 25.8161 42.6035C25.7559 42.6035 25.5701 42.3866 25.1316 41.8047C25.0148 41.6498 24.8567 41.482 24.7802 41.4319C24.6473 41.3447 27.2995 41.3406 15.8734 41.3373C9.30208 41.3353 3.41413 41.3467 2.78906 41.3625Z" fill="#E4002B"/>
</g>
<defs>
<clipPath id="clip0_314_8227">
<rect width="50" height="50" fill="white"/>
</clipPath>
</defs>
</svg>
