<svg width="33" height="32" viewBox="0 0 33 32" fill="none" xmlns="http://www.w3.org/2000/svg">
<g clip-path="url(#clip0_314_7979)">
<path fill-rule="evenodd" clip-rule="evenodd" d="M6.47804 7.11206C5.99018 7.26837 5.72755 7.4351 5.35164 7.82726C4.74038 8.46498 4.55985 8.98791 4.55985 10.1208C4.55985 11.1073 4.703 11.3641 5.25286 11.3641C5.41856 11.3641 5.5524 11.3076 5.70141 11.1748L5.91381 10.9855L5.95193 10.1364L5.99005 9.28733L9.79418 12.5317C11.8865 14.3161 13.5983 15.791 13.5983 15.8092C13.5983 15.8275 11.8865 17.3023 9.79418 19.0868L5.99005 22.3311L5.95193 21.482L5.91381 20.6329L5.70141 20.4437C5.5524 20.3108 5.41856 20.2544 5.25286 20.2544C4.703 20.2544 4.55985 20.5111 4.55985 21.4977C4.55985 22.3028 4.67047 22.8327 4.9311 23.2762C5.18454 23.7077 5.82341 24.2652 6.27043 24.4451L6.65525 24.6H17.864H29.0728L29.5052 24.3937C30.1387 24.0913 30.5212 23.721 30.8175 23.1229L31.0684 22.6165V15.8127V9.00881L30.8579 8.56562C30.5649 7.94888 30.1878 7.56467 29.5824 7.26625L29.0797 7.01845L17.9673 7.00491C7.38539 6.99204 6.83686 6.99715 6.47804 7.11206ZM28.5968 8.36194C28.6495 8.447 18.2314 17.296 18.0004 17.3624C17.8448 17.4071 17.7354 17.3955 17.5778 17.3175C17.4608 17.2597 16.1667 16.1875 14.7021 14.9351C13.2374 13.6826 10.925 11.7064 9.56335 10.5435C8.20167 9.38068 7.08764 8.40294 7.08764 8.3707C7.08764 8.29938 28.5527 8.29062 28.5968 8.36194ZM29.7692 15.8092C29.7692 19.294 29.7469 22.1802 29.7196 22.223C29.6663 22.3066 22.1546 15.9393 22.1546 15.8105C22.1546 15.6816 29.6662 9.31174 29.7196 9.39541C29.7469 9.4382 29.7692 12.3244 29.7692 15.8092ZM2.85379 13.5472C2.39226 13.831 2.43876 14.514 2.93354 14.7202C3.1359 14.8046 3.52738 14.8175 5.36947 14.8008L7.5644 14.7809L7.75837 14.5642C8.02059 14.2714 8.02059 13.9634 7.75837 13.6706L7.56433 13.454L5.31373 13.4362C3.18519 13.4194 3.05175 13.4254 2.85379 13.5472ZM15.7052 17.584C16.9353 18.6532 17.1268 18.7591 17.8308 18.7594C18.5604 18.7597 18.769 18.6479 19.9262 17.637C20.4567 17.1736 20.9278 16.7787 20.9731 16.7594C21.0658 16.7201 28.6439 23.1787 28.5964 23.2565C28.5535 23.3268 7.08764 23.3191 7.08764 23.2488C7.08764 23.1813 14.6001 16.7381 14.6787 16.7381C14.7081 16.7381 15.17 17.1187 15.7052 17.584ZM0.967719 16.8499C0.912839 16.8704 0.785584 16.9638 0.685005 17.0573C0.333974 17.3835 0.510521 18.0488 0.978695 18.1642C1.06411 18.1853 2.58085 18.194 4.34917 18.1835L7.56426 18.1645L7.75837 17.9478C8.02059 17.655 8.02059 17.347 7.75837 17.0543L7.56426 16.8376L4.31591 16.825C2.5293 16.8181 1.0226 16.8293 0.967719 16.8499Z" fill="#283583"/>
</g>
<defs>
<clipPath id="clip0_314_7979">
<rect width="32" height="32" fill="white" transform="translate(0.5)"/>
</clipPath>
</defs>
</svg>
